<svg width="298" height="112" viewBox="0 0 298 112" fill="none" xmlns="http://www.w3.org/2000/svg">
<path d="M1.50534 109.48L3.3388 110.145L5.17169 110.273L7.00445 110.271L8.83721 110.269L10.67 110.267L12.5028 110.265L14.313 88.7998L16.1599 102.265L17.9992 108.529L19.8328 109.328L21.666 109.726L23.4993 110.253L25.3321 110.251L27.1649 110.25L28.9841 97.3178L30.8304 110.246L32.6632 110.244L34.4959 110.242L36.3175 99.5768L38.152 101.175L39.9942 110.236L41.8266 109.838L43.6345 86.1024L45.4925 110.23L47.3124 97.9653L49.1396 92.63L50.9725 92.7614L52.8218 108.493L54.6498 103.958L56.4778 99.4224L58.3217 110.087L60.1485 104.352L61.9874 110.213L63.8201 110.211L65.6529 110.209L67.4847 109.278L69.3184 110.205L71.1511 110.074L72.9815 107.805L74.8167 110.2L76.6495 110.198L78.4816 109.533L80.3114 106.731L82.1396 102.329L83.9772 106.994L85.8117 108.592L87.6215 86.7229L89.4787 110.055L91.3116 110.182L93.1444 110.18L94.9771 110.178L96.8099 110.177L98.6342 102.045L100.475 110.173L102.308 110.171L104.027 1.50503L105.962 99.3705L107.807 110.165L109.639 110.163L111.472 110.161L113.305 110.159L115.137 109.894L116.97 110.155L118.803 110.154L120.636 110.152L122.466 107.62L124.301 110.148L126.131 107.616L127.954 97.7474L129.785 96.0122L131.632 110.14L133.465 110.138L135.297 108.807L137.13 109.071L138.962 108.403L140.796 110.13L142.629 110.129L144.462 110.127L146.295 110.125L148.127 110.123L149.943 93.7244L151.791 108.389L153.626 110.117L155.458 110.115L157.291 110.113L159.124 110.111L160.957 110.109L162.789 110.107L164.622 110.105L166.447 102.907L168.288 109.972L170.044 110.1L171.877 109.968L173.706 106.9L175.525 93.5642L177.356 91.5623L179.208 110.09L181.041 110.088L182.873 110.086L184.706 109.555L186.448 23.5522L188.362 100.351L190.205 110.079L192.037 110.077L193.87 110.075L195.663 72.3429L197.533 107.275L199.364 105.806L201.192 101.537L203.032 108.469L204.867 110.063L206.697 108.065L208.517 95.7963L210.364 108.728L212.191 103.526L214.026 105.924L215.863 109.922L217.696 110.05L219.529 110.048L221.319 69.116L223.173 89.9143L225.027 110.042L226.86 110.04L228.664 82.3084L230.525 110.036L232.357 108.571L234.153 73.5026L236.024 110.031L237.847 100.832L239.689 109.764L241.522 110.025L243.354 108.96L245.187 110.021L247.012 101.889L248.853 110.017L250.686 110.015L252.519 110.013L254.351 110.011L256.165 92.1464L258.017 109.878L259.85 110.006L261.682 109.741L263.515 110.002L265.348 110L267.177 106.135L269.013 109.996L270.846 109.994L272.679 109.992L274.506 104.127L276.31 77.5918L278.177 109.987L280.01 109.985L281.842 109.186L283.676 109.981L285.508 109.979L287.341 109.977L289.174 109.975L291.006 109.843L292.839 109.971L294.672 109.969L296.495 109.971" stroke="#2C3E50" stroke-width="3" stroke-linecap="round" stroke-linejoin="round"/>
</svg>
