<?xml version="1.0" encoding="UTF-8"?>
<svg id="Layer_2" data-name="Layer 2" xmlns="http://www.w3.org/2000/svg" viewBox="0 0 220.35 393.55">
  <defs>
    <style>
      .cls-1 {
        fill: #000;
        stroke-width: 0px;
      }
    </style>
  </defs>
  <g id="Layer_1-2" data-name="Layer 1">
    <g>
      <path class="cls-1" d="M177.5,109.51l40.85-92.51S227.69-1.38,205.95.08l-98.48.03c-27.14,1.11-51.6,17.02-63.79,41.5-12.06,24.22-10.27,53.3,4.67,75.89,7.16,10.82,17.06,19.65,28.65,25.52,17.81,9.04,38.05,10.57,56.99,4.31,19.06-6.31,34.52-19.74,43.52-37.82ZM80.11,95.67c-11.22-16.97-6.57-39.83,10.41-51.05,16.97-11.22,39.83-6.57,51.05,10.41,11.22,16.97,6.57,39.83-10.41,51.05-16.97,11.22-39.83,6.57-51.05-10.41Z"/>
      <path class="cls-1" d="M188.87,136.18l-128.32,54.12C25.8,206.66,2.66,240.81.21,279.42c-2.41,38.19,15.89,75.1,47.77,96.33,15.27,10.17,33.02,16.23,51.35,17.53,28.18,2.01,55.39-7.12,76.63-25.68,21.38-18.69,34.14-44.68,35.94-73.19l2.43-142.99s2.08-29.08-25.45-15.24ZM177.46,199.39l-1.47,86.78c-1.09,17.3-8.84,33.08-21.81,44.42-12.89,11.27-29.41,16.8-46.51,15.59-11.12-.79-21.9-4.47-31.16-10.64-19.35-12.89-30.45-35.29-28.99-58.46,1.49-23.43,15.53-44.16,36.62-54.09l77.88-32.85c16.71-8.4,15.45,9.25,15.45,9.25Z"/>
    </g>
  </g>
</svg>