<?xml version="1.0" standalone="no"?>
<!DOCTYPE svg PUBLIC "-//W3C//DTD SVG 20010904//EN"
 "http://www.w3.org/TR/2001/REC-SVG-20010904/DTD/svg10.dtd">
<svg version="1.0" xmlns="http://www.w3.org/2000/svg"
 width="512.000000pt" height="512.000000pt" viewBox="0 0 512.000000 512.000000"
 preserveAspectRatio="xMidYMid meet">

<g transform="translate(0.000000,512.000000) scale(0.100000,-0.100000)"
fill="#000000" stroke="none">
<path d="M2018 4595 c-275 -45 -533 -204 -691 -426 -91 -128 -187 -375 -187
-483 0 -66 -7 -73 -90 -101 -297 -99 -508 -371 -535 -692 -8 -94 12 -229 50
-330 75 -197 251 -377 448 -456 149 -60 94 -58 1587 -55 l1365 3 70 23 c280
94 475 297 546 568 28 107 28 279 1 384 -70 264 -252 465 -502 554 l-90 32 -4
90 c-5 116 -18 169 -73 283 -37 78 -59 108 -122 170 -137 135 -263 191 -449
199 -131 5 -206 -7 -310 -50 l-72 -30 -63 58 c-224 207 -571 310 -879 259z
m402 -144 c170 -44 333 -142 457 -275 l63 -67 67 41 c227 137 503 107 689 -75
132 -129 189 -321 150 -502 l-13 -63 36 -5 c153 -25 262 -70 364 -150 101 -80
195 -230 228 -365 19 -77 16 -240 -5 -319 -50 -184 -182 -344 -351 -426 -140
-68 -58 -65 -1545 -65 -1501 0 -1393 -5 -1550 72 -69 33 -101 57 -170 127
-126 128 -186 258 -197 431 -6 109 14 208 65 315 92 191 256 319 467 364 l80
17 7 100 c20 281 141 513 356 682 107 84 272 156 413 181 90 16 292 7 389 -18z"/>
<path d="M1340 1345 l0 -445 65 0 65 0 0 445 0 445 -65 0 -65 0 0 -445z"/>
<path d="M1730 1150 l0 -641 63 3 62 3 3 638 2 637 -65 0 -65 0 0 -640z"/>
<path d="M2110 1345 l0 -445 65 0 65 0 0 445 0 445 -65 0 -65 0 0 -445z"/>
<path d="M2500 1150 l0 -640 60 0 60 0 0 640 0 640 -60 0 -60 0 0 -640z"/>
<path d="M2880 1345 l0 -445 65 0 65 0 0 445 0 445 -65 0 -65 0 0 -445z"/>
<path d="M3262 1153 l3 -638 63 -3 62 -3 0 641 0 640 -65 0 -65 0 2 -637z"/>
<path d="M3650 1345 l0 -445 65 0 65 0 0 445 0 445 -65 0 -65 0 0 -445z"/>
</g>
</svg>
