<?xml version="1.0" standalone="no"?>
<!DOCTYPE svg PUBLIC "-//W3C//DTD SVG 20010904//EN"
 "http://www.w3.org/TR/2001/REC-SVG-20010904/DTD/svg10.dtd">
<svg version="1.0" xmlns="http://www.w3.org/2000/svg"
 width="512.000000pt" height="512.000000pt" viewBox="0 0 512.000000 512.000000"
 preserveAspectRatio="xMidYMid meet">

<g transform="translate(0.000000,512.000000) scale(0.100000,-0.100000)"
fill="#000000" stroke="none">
<path d="M3836 5099 c-21 -17 -26 -29 -26 -64 0 -38 -4 -47 -27 -59 -16 -8
-42 -29 -59 -48 -54 -57 -64 -87 -64 -196 0 -113 10 -132 72 -132 55 0 71 25
76 126 4 76 7 87 30 104 33 27 68 25 97 -5 l25 -24 0 -314 0 -314 -23 -21
c-27 -25 -74 -29 -102 -8 -16 12 -21 31 -26 110 -7 113 -21 136 -79 136 -60 0
-70 -20 -70 -139 0 -63 5 -114 13 -134 20 -46 62 -92 102 -111 l35 -17 0 -297
-1 -297 -41 50 c-146 176 -328 297 -510 340 -91 21 -113 19 -150 -14 -28 -25
-33 -36 -33 -74 0 -42 5 -49 75 -123 114 -120 189 -240 245 -394 29 -81 64
-229 65 -272 l0 -26 -52 13 c-29 8 -161 37 -293 65 -568 120 -702 156 -840
228 -38 20 -91 58 -117 83 -76 76 -75 137 6 246 96 131 298 273 616 435 85 44
161 87 168 96 6 9 12 34 12 57 0 44 -24 76 -66 89 -36 11 -509 -60 -869 -130
-339 -67 -811 -189 -847 -221 -25 -22 -31 -62 -13 -89 31 -48 45 -48 193 -5
276 81 620 158 987 222 94 16 176 29 184 29 8 0 -36 -32 -98 -70 -226 -140
-382 -284 -443 -408 -28 -57 -33 -76 -32 -142 0 -61 5 -85 26 -125 64 -123
230 -225 493 -303 55 -16 282 -69 505 -117 739 -158 1053 -251 1332 -391 349
-176 539 -430 538 -722 -2 -612 -938 -1095 -2695 -1391 -346 -58 -1025 -148
-1011 -133 3 2 69 30 148 62 827 335 1371 689 1570 1023 107 179 115 307 19
307 -46 0 -65 -19 -81 -80 -63 -237 -337 -495 -800 -752 -151 -84 -230 -125
-339 -174 l-74 -34 6 107 c10 180 53 345 130 498 73 148 151 245 295 367 42
37 50 72 25 106 -17 22 -29 28 -73 30 -71 4 -198 -22 -289 -60 -154 -64 -313
-196 -419 -347 l-52 -74 1 264 0 264 47 30 c31 20 56 47 74 80 27 49 28 53 28
233 l0 182 23 0 c28 0 350 -42 526 -69 410 -63 653 -153 790 -293 59 -59 73
-68 104 -68 41 0 67 27 67 71 0 61 -131 184 -271 254 -198 100 -457 160 -994
230 -110 14 -210 28 -222 30 -21 5 -23 11 -23 83 0 53 -6 90 -19 118 -19 41
-94 114 -118 114 -9 0 -13 14 -13 45 0 35 -6 52 -25 70 -52 53 -125 13 -125
-68 0 -40 -3 -46 -29 -56 -64 -27 -121 -114 -121 -186 0 -42 4 -42 -159 11
-244 80 -390 194 -452 352 -29 74 -32 187 -6 251 65 160 270 324 559 448 46
19 91 42 101 51 24 21 22 77 -3 102 -33 33 -74 24 -228 -50 -460 -222 -653
-478 -587 -775 59 -265 265 -438 655 -549 l115 -33 5 -229 c5 -228 5 -229 33
-276 17 -30 44 -57 72 -74 l45 -26 0 -296 -1 -297 -31 40 c-61 78 -186 192
-261 239 -99 62 -202 102 -312 121 -120 21 -142 19 -170 -10 -37 -36 -33 -80
7 -113 301 -246 438 -575 438 -1051 l0 -129 -67 -23 c-81 -27 -113 -56 -113
-101 1 -37 14 -59 48 -77 26 -14 132 -8 507 30 1202 120 2223 340 2881 619
740 315 1078 716 1004 1190 -24 152 -99 310 -199 422 l-51 56 0 465 c0 457 0
466 20 472 37 12 83 59 106 110 23 49 24 55 24 370 0 195 -4 335 -11 358 -12
43 -68 111 -109 132 -22 11 -28 23 -32 60 -7 58 -31 85 -75 85 -47 0 -73 -29
-73 -83 0 -36 -4 -46 -23 -54 -40 -19 -87 -65 -109 -106 -16 -32 -22 -67 -26
-150 l-5 -108 -66 -33 c-127 -65 -275 -197 -357 -321 -20 -30 -38 -55 -40 -55
-2 0 -4 117 -4 260 l0 259 28 15 c41 21 82 66 103 111 17 36 19 71 19 364 0
217 -4 336 -12 362 -14 49 -67 112 -108 129 -27 11 -30 17 -30 57 0 79 -66
118 -124 72z m883 -1015 c20 -26 21 -38 21 -334 0 -278 -2 -310 -17 -329 -29
-34 -74 -37 -109 -8 l-29 25 0 317 0 317 24 19 c35 28 85 25 110 -7z m-289
-396 c0 -13 -9 -36 -21 -53 -38 -56 -116 -220 -143 -300 -53 -158 -67 -246
-73 -462 -3 -112 -8 -203 -12 -203 -12 0 -116 42 -124 50 -5 4 -17 57 -27 116
-11 60 -30 142 -43 183 l-25 74 23 66 c52 153 141 298 249 407 64 64 169 144
188 144 5 0 8 -10 8 -22z m-1042 -112 c182 -92 352 -307 440 -556 26 -76 66
-239 60 -246 -2 -1 -62 14 -134 34 l-131 36 -21 126 c-35 210 -121 425 -228
571 -24 32 -42 59 -39 59 3 0 27 -11 53 -24z m1102 -258 c0 -4 23 -21 50 -39
l50 -32 0 -394 c0 -216 -3 -393 -6 -393 -3 0 -18 8 -32 19 -15 10 -69 42 -119
70 l-93 52 0 187 c0 244 20 375 81 538 l21 56 24 -28 c13 -16 23 -32 24 -36z
m-3306 -769 l26 -20 0 -320 c0 -306 -1 -320 -20 -339 -27 -27 -77 -26 -107 2
l-23 21 0 314 0 314 25 24 c30 30 64 32 99 4z m488 -1181 c-143 -213 -217
-452 -229 -740 l-6 -146 -64 -27 c-35 -15 -65 -26 -67 -24 -2 2 -10 47 -19 99
-9 52 -28 136 -42 185 -15 50 -24 103 -22 120 9 55 83 212 142 301 32 48 90
118 129 157 66 64 195 155 222 156 7 1 -13 -36 -44 -81z m-1034 -72 c126 -64
272 -213 355 -362 83 -149 157 -396 157 -525 l0 -46 -134 -50 -133 -49 -6 170
c-7 183 -23 296 -62 430 -40 138 -121 306 -195 404 -22 28 -37 52 -35 52 3 0
27 -11 53 -24z"/>
<path d="M2686 2608 c-21 -30 -20 -71 2 -97 14 -17 69 -31 312 -81 481 -97
663 -150 870 -252 109 -54 135 -72 206 -142 64 -64 86 -93 103 -139 30 -82 29
-185 -3 -252 -48 -101 -151 -199 -292 -276 -41 -23 -79 -49 -84 -59 -15 -27
-12 -62 6 -88 26 -37 76 -30 171 27 170 101 272 201 335 328 30 61 33 78 36
173 4 93 1 115 -21 178 -88 252 -364 426 -892 560 -205 52 -644 142 -695 142
-29 0 -43 -6 -54 -22z"/>
</g>
</svg>
