<?xml version="1.0" standalone="no"?>
<!DOCTYPE svg PUBLIC "-//W3C//DTD SVG 20010904//EN"
 "http://www.w3.org/TR/2001/REC-SVG-20010904/DTD/svg10.dtd">
<svg version="1.0" xmlns="http://www.w3.org/2000/svg"
 width="512.000000pt" height="512.000000pt" viewBox="0 0 512.000000 512.000000"
 preserveAspectRatio="xMidYMid meet">

<g transform="translate(0.000000,512.000000) scale(0.100000,-0.100000)"
fill="#000000" stroke="none">
<path d="M4125 4788 c-154 -29 -314 -154 -385 -302 -60 -125 -73 -229 -45
-361 55 -264 272 -438 545 -438 273 0 490 174 545 438 28 132 15 236 -45 361
-109 227 -360 350 -615 302z m185 -158 c168 -32 286 -148 320 -315 18 -87 7
-166 -35 -251 -42 -86 -102 -144 -193 -187 -61 -29 -76 -32 -162 -32 -86 0
-101 3 -160 31 -94 45 -153 102 -195 187 -117 238 19 516 277 566 61 12 88 12
148 1z"/>
<path d="M1875 3833 c-333 -43 -609 -177 -840 -408 -240 -239 -370 -522 -391
-855 -8 -113 0 -141 47 -160 70 -29 100 8 118 149 23 181 139 341 304 420 126
61 229 74 362 46 264 -55 438 -272 438 -545 0 -273 -174 -490 -438 -545 -56
-12 -171 -15 -588 -15 l-518 0 -24 -25 c-33 -32 -33 -78 0 -111 l25 -25 563 3
562 3 80 27 c116 40 199 92 290 183 135 134 201 280 212 465 8 131 -14 237
-74 360 -116 237 -382 400 -653 400 -105 0 -201 -23 -295 -69 -44 -22 -81 -39
-82 -38 -1 1 13 24 31 50 239 353 645 557 1061 533 219 -12 405 -73 603 -198
47 -30 69 -38 87 -34 39 10 65 42 65 80 0 29 -7 41 -42 69 -142 114 -374 207
-591 236 -74 10 -247 13 -312 4z"/>
<path d="M3495 3509 c-428 -63 -781 -354 -924 -763 -37 -106 -61 -233 -61
-328 0 -81 8 -101 49 -118 57 -23 111 25 111 100 0 20 7 62 15 93 52 201 220
327 435 327 134 0 247 -47 332 -138 237 -253 101 -679 -240 -751 -34 -7 -207
-11 -488 -11 l-435 0 -24 -25 c-33 -32 -33 -78 0 -110 l24 -25 449 0 c414 0
455 2 526 20 152 39 275 123 360 247 69 101 99 195 104 324 7 188 -40 311
-173 445 -98 99 -201 154 -338 181 -106 20 -219 9 -317 -30 -33 -14 -60 -22
-60 -18 0 17 116 146 178 197 123 102 247 165 406 207 117 30 336 30 459 -1
333 -83 600 -329 706 -649 25 -75 51 -219 51 -284 0 -93 82 -138 137 -75 27
31 30 78 12 202 -35 252 -162 501 -345 675 -254 241 -611 357 -949 308z"/>
<path d="M345 1345 c-41 -40 -34 -80 24 -134 107 -101 266 -168 421 -178 184
-12 381 58 508 180 35 34 42 48 42 78 0 29 -6 43 -26 58 -40 31 -65 26 -134
-29 -134 -107 -287 -148 -446 -119 -81 15 -188 67 -252 123 -63 54 -99 60
-137 21z"/>
<path d="M2050 1326 c-110 -94 -228 -136 -382 -136 -82 0 -89 -2 -103 -24 -10
-15 -15 -40 -13 -63 4 -52 46 -73 143 -73 129 0 267 41 374 110 l62 40 33 -25
c44 -33 168 -89 236 -106 30 -8 102 -14 160 -14 58 0 130 6 160 14 68 17 192
73 236 106 l33 25 62 -40 c81 -52 154 -79 268 -98 164 -28 346 11 483 101 l55
37 64 -43 c197 -131 490 -138 708 -16 76 43 160 115 167 145 13 51 -31 104
-86 104 -10 0 -42 -21 -72 -46 -121 -106 -296 -153 -449 -121 -97 19 -169 54
-248 117 -34 27 -73 50 -85 50 -13 0 -52 -23 -87 -52 -214 -172 -497 -167
-704 12 -64 55 -90 53 -167 -16 -79 -71 -224 -124 -338 -124 -114 0 -259 53
-338 124 -78 70 -102 71 -172 12z"/>
<path d="M349 631 c-45 -46 -39 -75 27 -138 63 -60 184 -124 284 -150 88 -23
263 -23 348 1 80 21 154 55 212 94 41 28 47 30 65 17 55 -39 128 -76 200 -101
70 -24 95 -28 205 -28 104 -1 137 3 200 23 84 26 135 50 198 93 l42 29 33 -25
c54 -41 178 -95 257 -112 45 -9 108 -14 157 -12 70 3 85 6 107 27 33 31 35 79
4 108 -19 17 -40 21 -133 26 -131 6 -223 36 -300 97 -119 95 -136 97 -213 29
-55 -48 -166 -103 -240 -118 -157 -32 -317 9 -451 117 -35 29 -74 52 -86 52
-13 0 -50 -22 -85 -50 -34 -27 -85 -61 -114 -75 -59 -29 -170 -55 -236 -55
-120 0 -259 54 -350 135 -60 54 -89 57 -131 16z"/>
<path d="M2939 631 c-16 -16 -29 -37 -29 -46 0 -69 158 -187 314 -234 189 -58
425 -24 581 84 l50 34 30 -20 c67 -45 194 -98 275 -115 205 -41 440 25 591
167 55 51 65 93 29 129 -44 44 -76 38 -164 -34 -109 -88 -270 -131 -404 -108
-102 17 -170 47 -257 113 -43 32 -89 59 -101 59 -12 0 -44 -18 -70 -40 -219
-182 -504 -184 -712 -6 -63 54 -92 58 -133 17z"/>
</g>
</svg>
