<?xml version="1.0" standalone="no"?>
<!DOCTYPE svg PUBLIC "-//W3C//DTD SVG 20010904//EN"
 "http://www.w3.org/TR/2001/REC-SVG-20010904/DTD/svg10.dtd">
<svg version="1.0" xmlns="http://www.w3.org/2000/svg"
 width="512.000000pt" height="512.000000pt" viewBox="0 0 512.000000 512.000000"
 preserveAspectRatio="xMidYMid meet">

<g transform="translate(0.000000,512.000000) scale(0.100000,-0.100000)"
fill="#000000" stroke="none">
<path d="M510 4950 c-38 -13 -68 -33 -101 -68 -86 -89 -79 107 -79 -2211 0
-1967 1 -2058 19 -2096 91 -201 646 -343 1586 -407 272 -18 1049 -15 1320 6
935 71 1462 219 1513 423 6 23 12 813 15 2087 5 2317 12 2113 -77 2202 -91 92
108 84 -2150 84 -1926 -1 -1993 -1 -2046 -20z m250 -993 l0 -893 -76 -24 c-42
-13 -112 -40 -155 -61 l-79 -38 0 889 c0 605 3 898 11 917 28 76 82 102 207
103 l92 0 0 -893z m3500 678 l0 -215 -482 0 -483 0 -18 45 c-24 57 -86 121
-145 148 -46 22 -56 22 -577 22 l-530 0 -51 -27 c-61 -32 -117 -94 -140 -155
l-17 -43 -167 0 c-92 0 -302 3 -468 7 l-302 6 0 207 c0 114 3 210 7 213 3 4
764 7 1690 7 l1683 0 0 -215z m336 189 c15 -11 37 -33 48 -48 24 -31 23 29 19
-1174 l-3 -662 -67 33 c-38 19 -106 47 -152 62 l-84 28 6 336 c4 185 10 581
13 881 3 300 8 551 10 558 3 11 25 13 93 10 71 -2 95 -7 117 -24z m-2436 -308
c0 -3 16 -77 35 -166 19 -89 35 -166 35 -172 0 -19 -171 -5 -211 18 -64 38
-99 115 -84 190 7 41 79 120 116 127 33 6 109 8 109 3z m200 0 c0 -3 16 -77
35 -166 19 -89 35 -166 35 -171 0 -6 -17 -9 -37 -7 l-36 3 -34 150 c-18 83
-35 160 -38 173 -5 20 -2 22 35 22 22 0 40 -2 40 -4z m200 0 c0 -3 16 -77 35
-166 19 -89 35 -166 35 -171 0 -6 -17 -9 -37 -7 l-36 3 -34 150 c-18 83 -35
160 -38 173 -5 20 -2 22 35 22 22 0 40 -2 40 -4z m200 0 c0 -3 16 -77 35 -166
19 -89 35 -166 35 -171 0 -6 -17 -9 -37 -7 l-36 3 -34 150 c-18 83 -35 160
-38 173 -5 20 -2 22 35 22 22 0 40 -2 40 -4z m327 -17 c79 -38 118 -151 78
-228 -31 -61 -115 -107 -179 -99 -29 3 -30 4 -63 153 -18 83 -35 160 -38 173
-5 21 -3 22 77 22 63 0 92 -5 125 -21z m-1438 -209 l166 0 17 -48 c24 -66 78
-126 146 -159 l57 -28 408 -3 407 -3 0 -400 0 -399 -262 0 c-611 0 -1193 -48
-1592 -130 -54 -11 -102 -20 -107 -20 -5 0 -9 257 -9 602 l0 601 302 -6 c166
-4 376 -7 467 -7z m2603 -225 c-1 -126 -5 -397 -8 -600 l-6 -370 -132 26
c-257 52 -574 89 -928 110 l-208 13 0 401 0 402 58 7 c119 13 223 93 257 197
l17 49 476 -2 477 -3 -3 -230z m-1402 -972 l0 -36 -152 6 c-188 8 -720 -7
-963 -28 -518 -44 -798 -109 -879 -205 -53 -63 -23 -136 75 -186 96 -48 325
-97 604 -128 313 -35 453 -41 1010 -41 606 0 793 10 1141 60 386 56 554 126
554 232 0 30 -8 44 -43 78 -34 32 -64 48 -139 73 -168 56 -459 100 -808 122
-293 19 -280 16 -280 52 l0 31 133 -7 c525 -28 984 -95 1276 -188 177 -56 295
-134 271 -178 -65 -121 -532 -244 -1150 -304 -523 -51 -1333 -55 -1796 -10
-54 6 -64 4 -83 -15 -50 -50 -14 -95 85 -105 141 -13 387 -25 647 -32 l267 -7
0 -180 0 -180 -273 6 c-530 13 -921 49 -1294 118 l-113 21 0 180 0 181 33 -7
c101 -21 333 -58 398 -63 75 -6 77 -5 95 22 16 25 16 30 3 54 -17 30 -19 31
-249 66 -393 61 -671 149 -745 237 -30 36 -30 38 -4 66 120 129 587 241 1239
297 261 22 499 32 843 33 l297 2 0 -37z m-157 -150 l157 -6 0 -174 0 -173
-347 0 c-472 0 -775 18 -1109 65 -189 27 -341 63 -400 93 l-39 20 38 17 c192
81 731 147 1302 158 66 2 147 4 180 5 33 1 131 -1 218 -5z m567 -24 c329 -22
592 -61 747 -110 51 -17 95 -34 97 -38 15 -24 -201 -84 -414 -115 -138 -20
-399 -45 -577 -54 l-143 -7 0 173 0 172 68 -5 c37 -3 137 -10 222 -16z m-2542
-439 l102 -32 0 -178 0 -178 -76 24 c-114 35 -231 93 -265 131 l-29 34 0 154
0 154 83 -39 c45 -21 128 -52 185 -70z m3942 -44 c0 -152 0 -155 -26 -186 -61
-72 -301 -158 -587 -210 -37 -7 -71 -9 -74 -6 -6 6 -22 336 -17 344 0 1 79 18
174 38 192 39 389 100 465 143 28 16 53 29 58 30 4 1 7 -68 7 -153z m-827 -83
c3 -5 6 -84 8 -178 l4 -170 -50 -7 c-219 -31 -576 -59 -907 -73 l-148 -6 0
180 0 179 73 6 c39 3 146 8 237 11 187 6 488 30 630 50 117 16 148 17 153 8z
m-3168 -337 c211 -71 557 -135 919 -171 l68 -7 -6 -66 c-3 -37 -9 -141 -12
-230 -5 -124 -10 -165 -21 -169 -7 -3 -80 2 -160 11 -465 53 -861 158 -964
256 l-39 37 0 217 0 216 68 -34 c37 -18 103 -45 147 -60z m3995 -120 c0 -213
0 -215 -25 -244 -13 -16 -53 -43 -89 -61 -202 -99 -514 -166 -1048 -225 l-38
-4 0 238 0 238 68 7 c476 47 879 136 1072 236 30 15 56 28 58 29 1 0 2 -96 2
-214z m-2540 -86 c376 -16 911 -9 1158 15 l62 7 0 -236 c0 -129 -3 -237 -8
-240 -21 -13 -441 -28 -772 -29 -313 0 -767 16 -805 27 -7 2 -6 76 2 222 6
121 12 227 12 237 1 17 7 18 59 13 31 -4 163 -11 292 -16z m-1618 -325 c24
-13 104 -44 177 -69 73 -24 135 -46 137 -49 6 -5 -15 -449 -21 -455 -8 -8
-167 49 -238 86 -110 57 -107 49 -107 298 0 118 2 214 4 214 2 0 23 -11 48
-25z m4158 -182 c-1 -156 -4 -214 -14 -232 -36 -66 -261 -155 -529 -210 -81
-17 -150 -31 -153 -31 -2 0 -3 107 -2 237 l3 237 157 32 c187 38 368 93 458
140 36 18 68 33 73 34 4 0 7 -93 7 -207z m-3510 3 c286 -49 665 -83 1000 -91
124 -3 249 -8 278 -11 l52 -5 0 -236 0 -236 -242 6 c-411 11 -821 49 -1118
103 -74 14 -150 28 -168 31 l-33 6 6 151 c3 83 8 189 11 235 l6 83 31 -5 c18
-3 97 -17 177 -31z m2687 -493 c-7 -6 -219 -32 -397 -47 -235 -21 -523 -36
-697 -36 l-143 0 0 234 0 233 46 7 c26 3 110 6 188 6 228 0 629 28 906 63 l95
12 3 -234 c1 -129 1 -236 -1 -238z m-3272 49 c195 -85 529 -157 948 -203 l107
-12 0 -168 0 -168 -32 5 c-18 2 -109 13 -203 25 -444 54 -798 152 -902 252
l-33 31 0 144 c0 112 3 143 13 139 6 -3 53 -23 102 -45z m4095 -91 c0 -133 -1
-141 -24 -169 -85 -100 -452 -205 -911 -261 -93 -12 -191 -24 -217 -27 l-48
-6 0 169 0 169 168 18 c402 42 783 128 952 215 30 15 61 29 68 30 9 1 12 -33
12 -138z m-2610 -152 c227 -11 942 -7 1188 7 l102 6 0 -165 0 -165 -72 -6
c-362 -32 -987 -32 -1435 0 l-93 7 0 170 0 170 38 -6 c20 -3 143 -11 272 -18z"/>
</g>
</svg>
